<svg width="38" height="19" viewBox="0 0 38 19" fill="none" xmlns="http://www.w3.org/2000/svg">
<path d="M37.5647 8.15243C37.5643 8.15198 37.5639 8.15146 37.5634 8.15102L29.8072 0.432246C29.2262 -0.145994 28.2863 -0.143842 27.7079 0.437293C27.1296 1.01835 27.1319 1.95819 27.7129 2.5365L32.9204 7.71877H1.48438C0.664557 7.71877 0 8.38332 0 9.20315C0 10.023 0.664557 10.6875 1.48438 10.6875H32.9203L27.713 15.8698C27.1319 16.4481 27.1297 17.3879 27.708 17.969C28.2864 18.5502 29.2263 18.5522 29.8073 17.974L37.5635 10.2553C37.5639 10.2548 37.5643 10.2543 37.5648 10.2539C38.1462 9.67362 38.1443 8.73074 37.5647 8.15243Z" fill="white"/>
</svg>
