<svg width="61" height="46" viewBox="0 0 61 46" fill="none" xmlns="http://www.w3.org/2000/svg">
<path d="M3.22 42.0799V43.1699H4.87V44.3199C4.36 44.7299 3.92 44.8399 3.41 44.8399C1.8 44.8399 1.19 43.7399 1.19 42.6799C1.19 41.3499 2.03 40.2999 3.41 40.2999C3.97 40.2999 4.62 40.5299 5.05 40.9499L5.81 40.1799C5.15 39.5199 4.28 39.1899 3.41 39.1899C1.13 39.1899 0 40.8699 0 42.6899C0 44.3899 0.99 45.9799 3.41 45.9799C4.55 45.9799 5.35 45.5499 5.99 44.8199V42.0999H3.22V42.0799Z" fill="#1D1D1D"/>
<path d="M10.7398 39.3604H9.40977L6.50977 45.8204H7.82977L8.37977 44.6003L8.86977 43.4704L10.0698 40.7204L11.2698 43.4704L11.7598 44.6003L12.3098 45.8204H13.6398L10.7398 39.3604Z" fill="#1D1D1D"/>
<path d="M19.73 39.3701L17.71 42.1501L15.69 39.3701H14.29V45.8301H15.51V41.1301L17.57 43.9501H17.81L19.91 41.1401V45.8301H21.13V39.3701H19.73Z" fill="#1D1D1D"/>
<path d="M22.4404 39.3604V40.5404H27.2804V39.3604H22.4404ZM23.6504 44.6203V43.1604H27.1504V42.0204H22.4404V45.8204H27.2804V44.6203H23.6504Z" fill="#1D1D1D"/>
<path d="M32.1799 43.5301C33.4099 43.2801 33.8199 42.3801 33.8199 41.5001C33.8199 40.3801 33.0199 39.3701 31.4899 39.3601C30.4599 39.3601 29.4399 39.3501 28.4199 39.3501V45.8201H29.6399V40.4901H31.4999C32.2699 40.4901 32.6099 41.0101 32.6099 41.5201C32.6099 42.0401 32.2799 42.5501 31.4999 42.5501H29.9399L32.6999 45.8101H34.1499V45.7201L32.1799 43.5301Z" fill="#1D1D1D"/>
<path d="M37.6605 41.8701C36.8805 41.7801 36.2205 41.6201 36.2205 41.0601C36.2205 40.5801 36.6505 40.2001 37.5605 40.2001C38.2605 40.2001 38.8705 40.5501 39.0905 40.9201L40.0605 40.4201C39.5705 39.4201 38.5305 39.1401 37.5205 39.1401C36.3305 39.1501 35.0205 39.6901 35.0205 41.0201C35.0205 42.4701 36.2405 42.8201 37.5605 42.9801C38.4205 43.0701 39.0605 43.3201 39.0605 43.9301C39.0605 44.6301 38.3405 44.9001 37.5705 44.9001C36.7905 44.9001 36.0405 44.5801 35.7505 43.8701L34.7305 44.4001C35.2105 45.5801 36.2305 45.9901 37.5505 45.9901C38.9905 45.9901 40.2605 45.3701 40.2605 43.9301C40.2605 42.3901 39.0105 42.0401 37.6605 41.8701Z" fill="#1D1D1D"/>
<path d="M44.3595 39.3604H41.5195V45.8204H42.0195V43.5904H44.3595C47.1695 43.5904 47.1695 39.3604 44.3595 39.3604ZM44.3595 43.1304H42.0195V39.8204H44.3595C46.5195 39.8204 46.5195 43.1304 44.3595 43.1304Z" fill="#1D1D1D"/>
<path d="M50.6295 43.3503C52.0395 43.3503 52.7295 42.4303 52.7295 41.3703C52.7195 40.3603 52.0095 39.3604 50.6095 39.3604H47.7695V45.8204H48.2695V43.3703H50.0295L52.2595 45.8204H52.9195L50.6295 43.3503ZM48.2595 42.9004V39.8204H50.6095C51.6795 39.8204 52.1995 40.6004 52.1895 41.3604C52.1795 42.2704 51.6795 42.9004 50.5595 42.9004H48.2595Z" fill="#1D1D1D"/>
<path d="M56.9104 39.2603C54.7304 39.2603 53.6504 40.8503 53.6504 42.5803C53.6504 44.2903 54.7404 45.9303 56.9104 45.9303C59.0804 45.9303 60.1604 44.3003 60.1704 42.6003C60.1804 40.8503 59.0904 39.2603 56.9104 39.2603ZM56.9104 45.4703C55.0704 45.4703 54.1504 44.0503 54.1404 42.5903C54.1304 41.0703 55.0504 39.7203 56.9104 39.7203C58.7704 39.7203 59.6904 41.1003 59.6904 42.5903C59.6904 44.0503 58.7604 45.4703 56.9104 45.4703Z" fill="#1D1D1D"/>
<path d="M38.0593 18.1199L38.0093 17.7599C38.0093 17.7599 39.8693 18.5899 40.2493 18.7199C40.2493 18.7199 42.5193 15.2399 39.9593 11.0399L29.4193 17.3399L34.9393 8.32988L30.1193 11.6599L32.8393 6.50988L27.6993 9.75988L28.7693 6.75988L21.6493 10.5099L27.1293 4.12988C27.1293 4.12988 20.1293 4.34988 17.1693 8.51988C14.2093 12.6899 14.6393 18.0699 15.6793 19.2199L17.0593 18.2399C16.9193 18.3799 15.1993 22.5599 14.9493 22.9699C14.6993 23.3799 14.5293 23.7499 14.5293 24.0699C14.5293 24.1399 14.5393 24.2099 14.5593 24.2799C14.7293 24.7799 15.4493 26.5599 16.2793 28.2499C16.6893 29.0999 17.1193 29.9199 17.5193 30.5499C17.7193 30.8699 17.9093 31.1299 18.0893 31.3299C18.2693 31.5299 18.4293 31.6699 18.6093 31.7099C18.6893 31.7299 18.7793 31.7399 18.8793 31.7399C19.4293 31.7399 20.2393 31.4999 21.0893 31.2599C21.9393 31.0199 22.8093 30.7799 23.4193 30.7799C23.7193 30.7799 23.9393 30.8399 24.0793 30.9499L24.1493 30.8699C25.0593 31.6399 24.8693 32.1199 24.8693 32.1199C24.8693 32.1199 24.9293 32.2599 23.7593 32.2999C23.7093 32.3099 23.6693 32.3099 23.6293 32.3099C23.6293 32.3099 24.2593 34.3199 24.5693 35.1699C24.8693 36.0199 24.7693 36.0899 24.7693 36.0899L26.1893 36.1399L26.3493 35.0699L27.1193 36.1399H28.7693L29.3493 35.2599L29.8493 36.2499L31.3893 36.0599C31.3893 36.0599 31.5993 33.3299 32.2493 31.9299C32.2493 31.9299 31.7193 31.8399 30.3793 32.1499C30.3793 32.1499 30.6393 30.7799 31.6093 30.6199C32.8093 30.4299 34.7993 31.2299 35.6393 31.5399H35.6493C35.8893 31.6299 36.0293 31.6899 36.0293 31.6899C36.0293 31.6899 36.0593 31.6699 36.1293 31.6199C36.3793 31.4399 37.0793 30.8999 37.8493 30.1099C38.9993 28.1699 40.6193 24.3399 41.0093 22.2899C41.2093 21.2699 38.0193 17.7699 38.0193 17.7699L38.0593 18.1199ZM23.3493 25.2899H22.5493L22.5393 26.0899C22.5393 26.6399 22.0893 27.0899 21.5393 27.0899C20.9893 27.0899 20.5393 26.6399 20.5493 26.0899V25.2899H19.7493C19.1993 25.2899 18.7593 24.8399 18.7593 24.2899C18.7593 23.7399 19.1993 23.2899 19.7493 23.2999H20.5493V22.4999C20.5493 21.9499 20.9993 21.5099 21.5493 21.5099C22.0993 21.5099 22.5393 21.9499 22.5393 22.5099V23.3099H23.3393C23.8893 23.3199 24.3393 23.7599 24.3393 24.3099C24.3393 24.8499 23.8993 25.2899 23.3493 25.2899ZM26.4393 30.7299C26.4393 30.7299 27.1593 28.2499 27.8593 28.1999C28.5793 28.1499 29.6093 30.5299 29.6093 30.5299C29.6093 30.5299 27.7893 30.0999 26.4393 30.7299ZM33.2893 24.9699C33.2893 25.1499 33.1693 25.2199 33.0093 25.1299L31.8293 24.4399C31.6793 24.3499 31.6793 24.2099 31.8293 24.1199L33.0093 23.4399C33.1593 23.3499 33.2893 23.4299 33.2893 23.5999V24.9699ZM34.7793 26.8299C34.2893 26.8299 33.8993 26.4299 33.8993 25.9499C33.8993 25.4599 34.2993 25.0699 34.7893 25.0699C35.2793 25.0699 35.6693 25.4699 35.6693 25.9499C35.6693 26.4399 35.2693 26.8399 34.7793 26.8299ZM34.7893 23.6299C34.2993 23.6299 33.8993 23.2299 33.8993 22.7399C33.8993 22.2499 34.2993 21.8599 34.7893 21.8599C35.2793 21.8599 35.6693 22.2599 35.6693 22.7499C35.6693 23.2299 35.2793 23.6299 34.7893 23.6299ZM37.7393 24.4599L36.5593 25.1399C36.4093 25.2299 36.2793 25.1499 36.2793 24.9699V23.6099C36.2793 23.4299 36.4093 23.3599 36.5593 23.4499L37.7393 24.1399C37.8993 24.2199 37.8993 24.3699 37.7393 24.4599Z" fill="#1D1D1D"/>
<path d="M45.4896 15.08C44.8996 11.25 43.0996 7.83 40.4796 5.21C37.2596 1.99 32.7996 0 27.8896 0C22.9796 0 18.5196 1.99 15.2996 5.21C12.7296 7.78 10.9496 11.13 10.3296 14.88L7.84961 16.83V21.94L11.4796 24.29L12.1996 23.33L12.2696 23.31C11.6596 21.59 11.3296 19.74 11.3296 17.81C11.3296 13.23 13.1796 9.1 16.1796 6.1C19.1796 3.1 23.3196 1.25 27.8896 1.25C32.4696 1.25 36.5996 3.1 39.5996 6.1C42.5996 9.1 44.3596 12.97 44.6196 17.54C44.7896 20.49 44.0496 24.25 44.0496 24.25C43.6496 25.61 43.1396 26.79 42.5796 27.82C41.0296 30.62 39.0196 32.29 37.3796 33.28C37.1596 33.22 36.8396 33.17 36.4696 33.22C35.7596 33.31 33.4696 33.88 33.7096 35.48C33.9296 36.96 37.0196 35.96 37.8096 34.23C38.4096 33.88 39.0596 33.44 39.7296 32.89C41.0296 31.82 42.3796 30.34 43.4996 28.32C44.2496 26.97 44.8896 25.37 45.3396 23.51L47.7396 21.96V16.85L45.4896 15.08Z" fill="#1D1D1D"/>
</svg>
