<svg width="76" height="76" viewBox="0 0 76 76" fill="none" xmlns="http://www.w3.org/2000/svg">
<path d="M44.714 28.7594L39.9971 19.2018C39.622 18.4418 38.8479 17.9607 38.0004 17.9607C37.153 17.9607 36.3789 18.4419 36.0038 19.2018L31.2869 28.7594L20.7395 30.292C19.9009 30.4139 19.2039 31.0014 18.9421 31.8074C18.6801 32.6134 18.8986 33.4982 19.5054 34.0898L27.1376 41.5293L25.3359 52.0341C25.1926 52.8693 25.536 53.7136 26.2216 54.2118C26.9074 54.71 27.8163 54.7757 28.5665 54.3813L38.0004 49.4214L47.4342 54.381C48.1887 54.7778 49.0975 54.7067 49.7791 54.2115C50.4647 53.7133 50.8082 52.8692 50.6648 52.0338L48.8631 41.529L56.4953 34.0895C57.1021 33.4979 57.3206 32.6131 57.0586 31.8071C56.7968 31.0011 56.1 30.4136 55.2612 30.2917L44.714 28.7594ZM44.9166 39.1574C44.3918 39.6689 44.1524 40.4059 44.2762 41.1282L45.5131 48.3401L39.0365 44.9352C38.7122 44.7646 38.3562 44.6794 38.0004 44.6794C37.6446 44.6794 37.2887 44.7646 36.9643 44.9352L30.4877 48.3401L31.7246 41.1282C31.8484 40.4059 31.609 39.6689 31.0843 39.1574L25.8446 34.05L33.0857 32.9979C33.8109 32.8925 34.4378 32.4369 34.7621 31.7798L38.0004 25.2182L41.2387 31.7798C41.5631 32.4369 42.1901 32.8925 42.9152 32.9979L50.1563 34.05L44.9166 39.1574Z" fill="#FF800C"/>
<path d="M38 0C17.0764 0 0 17.0777 0 38C0 58.9236 17.0777 76 38 76C58.9236 76 76 58.9223 76 38C76 17.0764 58.9223 0 38 0ZM38 71.5469C19.5022 71.5469 4.45312 56.4978 4.45312 38C4.45312 19.5022 19.5022 4.45312 38 4.45312C56.4978 4.45312 71.5469 19.5022 71.5469 38C71.5469 56.4978 56.4978 71.5469 38 71.5469Z" fill="#FF800C"/>
<path d="M38 8.90625C22.0225 8.90625 8.90625 22.0211 8.90625 38C8.90625 53.9775 22.0211 67.0938 38 67.0938C53.9775 67.0938 67.0938 53.9789 67.0938 38C67.0938 22.0225 53.9789 8.90625 38 8.90625ZM38 62.6406C24.4131 62.6406 13.3594 51.5869 13.3594 38C13.3594 24.4131 24.4131 13.3594 38 13.3594C51.5869 13.3594 62.6406 24.4131 62.6406 38C62.6406 51.5869 51.5869 62.6406 38 62.6406Z" fill="#FF800C"/>
</svg>
