<svg width="72" height="72" viewBox="0 0 72 72" fill="none" xmlns="http://www.w3.org/2000/svg">
<path d="M3.60478 37.8485V40.7828C3.60478 42.8881 5.26148 44.6136 7.33978 44.7247C9.26044 47.981 12.7605 49.9902 16.5542 49.9902C20.3493 49.9902 23.8482 47.9814 25.769 44.7245C27.847 44.6133 29.5035 42.8878 29.5035 40.7827V37.8484H29.6931C31.5764 37.8484 33.1083 36.3163 33.1083 34.4332V33.4066C33.1083 31.5234 31.5762 29.9912 29.6931 29.9912H29.4993C29.4742 29.3763 29.1738 28.8325 28.7172 28.4788C28.5275 26.3344 27.7733 24.2812 26.5236 22.516C26.1869 22.0407 25.5286 21.9281 25.0533 22.2647C24.5779 22.6014 24.4654 23.2597 24.802 23.735C25.7165 25.0265 26.3088 26.5042 26.5423 28.0553H6.56592C7.29633 23.1685 11.5182 19.4617 16.5542 19.4617C18.3738 19.4617 20.1592 19.9523 21.7167 20.8807C22.2172 21.179 22.8644 21.0152 23.1626 20.5147C23.4609 20.0142 23.2969 19.3669 22.7966 19.0688C20.9125 17.9459 18.7539 17.3523 16.5541 17.3523C10.2168 17.3523 4.94789 22.2095 4.39453 28.4763C3.93595 28.83 3.63417 29.3749 3.60886 29.9914H3.41522C1.53225 29.9912 0 31.5235 0 33.4067V34.4333C0 36.3166 1.53225 37.8485 3.41536 37.8485H3.60478ZM16.5542 47.8809C13.953 47.8809 11.5241 46.7031 9.90956 44.7306H23.1989C21.5847 46.7034 19.1565 47.8809 16.5542 47.8809ZM27.3942 40.7828C27.3942 41.7966 26.5694 42.6212 25.5556 42.6212H7.55269C6.53892 42.6212 5.71416 41.7966 5.71416 40.7828V30.1646H27.3942V40.7828ZM30.999 33.4067V34.4333C30.999 35.1533 30.4131 35.7392 29.6931 35.7392H29.5035V32.1008H29.6931C30.4131 32.1006 30.999 32.6865 30.999 33.4067ZM2.10938 34.4332V33.4066C2.10938 32.6865 2.69522 32.1006 3.41536 32.1006H3.60478V35.739H3.41536C2.69522 35.7392 2.10938 35.1532 2.10938 34.4332Z" fill="#02C4F2"/>
<path d="M9.15079 39.319H23.9575C25.0708 39.319 25.9764 38.4132 25.9764 37.2999V33.8108C25.9764 32.6975 25.0708 31.7917 23.9575 31.7917H9.15079C8.03746 31.7917 7.13184 32.6975 7.13184 33.8108V37.2999C7.13184 38.4131 8.03746 39.319 9.15079 39.319ZM9.24121 33.901H23.8672V37.2095H9.24121V33.901Z" fill="#02C4F2"/>
<path d="M2.69066 10.2774H3.54763V11.1345C3.54763 12.5079 4.66476 13.625 6.0381 13.625H7.89632C7.90884 13.625 7.92093 13.6233 7.93345 13.6232C7.94596 13.6236 7.95806 13.625 7.97071 13.625H30.4222C31.7932 13.625 32.9085 12.5096 32.9085 11.1386V8.48374C32.9085 7.11279 31.7932 5.99735 30.4222 5.99735H13.7341V5.92887C13.7341 4.55552 12.617 3.4384 11.2436 3.4384H10.3867V2.58129C10.3867 1.20795 9.26952 0.0908203 7.89618 0.0908203H6.0381C4.66476 0.0908203 3.54763 1.20795 3.54763 2.58129V3.4384H2.69066C1.31732 3.4384 0.200195 4.55552 0.200195 5.92887V7.78709C0.200195 9.16029 1.31732 10.2774 2.69066 10.2774ZM13.7112 8.10673H15.0747V11.5155H10.3544C10.3737 11.3909 10.3868 11.2643 10.3868 11.1344V10.2773H11.2438C12.5084 10.2774 13.5535 9.32918 13.7112 8.10673ZM17.184 8.10673H22.793V11.5155H17.184V8.10673ZM30.7989 8.48374V11.1386C30.7989 11.3466 30.6299 11.5156 30.4221 11.5156H24.9024V8.10687H30.4221C30.6299 8.10673 30.7989 8.2759 30.7989 8.48374ZM2.30957 5.92887C2.30957 5.71877 2.48057 5.54777 2.69066 5.54777H4.60232C5.18493 5.54777 5.65701 5.0757 5.65701 4.49309V2.58129C5.65701 2.3712 5.82801 2.2002 6.0381 2.2002H7.89632C8.10641 2.2002 8.27742 2.3712 8.27742 2.58129V4.49309C8.27742 5.0757 8.74949 5.54777 9.3321 5.54777H11.2438C11.4539 5.54777 11.6249 5.71877 11.6249 5.92887V7.78709C11.6249 7.99718 11.4539 8.16804 11.2438 8.16804H9.33196C8.74935 8.16804 8.27727 8.64012 8.27727 9.22273V11.1345C8.27727 11.3446 8.10627 11.5156 7.89618 11.5156H6.0381C5.82801 11.5156 5.65701 11.3446 5.65701 11.1345V9.22273C5.65701 8.64012 5.18493 8.16804 4.60232 8.16804H2.69066C2.48057 8.16804 2.30957 7.99718 2.30957 7.78709V5.92887Z" fill="#02C4F2"/>
<path d="M67.4989 32.6631V30.2337C67.4989 29.5472 67.2063 28.9293 66.7411 28.493V25.0995C66.7411 23.4355 66.1437 21.824 65.0588 20.5621L64.2619 19.6352C63.8076 19.1066 63.1473 18.8035 62.4503 18.8034C62.4502 18.8034 62.4502 18.8034 62.4502 18.8034C61.9316 18.8034 61.4329 18.9715 61.0244 19.2752L57.2046 16.1966C56.3355 15.4963 55.0745 15.4963 54.206 16.1965L50.3862 19.2753C49.9779 18.9715 49.4795 18.8035 48.9605 18.8035C48.2635 18.8035 47.6033 19.1067 47.1488 19.6352L46.3519 20.5623C45.2669 21.8243 44.6696 23.4357 44.6696 25.0996V28.3862C44.1349 28.8246 43.793 29.4899 43.793 30.2337V32.6633C41.8853 33.1179 40.4619 34.8355 40.4619 36.8805C40.4619 39.2712 42.407 41.2164 44.7978 41.2164C44.801 41.2164 44.8043 41.2161 44.8077 41.2161C45.3927 46.1499 49.5989 49.9898 54.6875 49.9898H56.6043C61.6931 49.9898 65.8992 46.1501 66.4842 41.2162C66.4875 41.2162 66.4908 41.2165 66.4941 41.2165C68.885 41.2165 70.8302 39.2714 70.8302 36.8806C70.8303 34.8354 69.4068 33.1178 67.4989 32.6631ZM47.9515 21.9374L48.7484 21.0102C48.8176 20.9298 48.9019 20.9129 48.9605 20.9129C49.0191 20.9129 49.1035 20.9298 49.1727 21.0102L49.4979 21.3887C49.8692 21.8205 50.5165 21.8797 50.9596 21.5224L55.5299 17.839C55.6316 17.7572 55.7791 17.757 55.881 17.8391L60.4512 21.5224C60.8947 21.8796 61.5417 21.8205 61.9129 21.3887L62.2381 21.0104C62.3074 20.9299 62.3918 20.9129 62.4505 20.9129C62.509 20.9131 62.5933 20.9299 62.6627 21.0104L63.4596 21.9372C64.2156 22.8167 64.632 23.9397 64.632 25.0995V27.8446H61.8327V26.1099C61.8327 25.5273 61.3606 25.0552 60.778 25.0552C60.1954 25.0552 59.7233 25.5273 59.7233 26.1099V27.8446H56.7604V22.7024C56.7604 22.1198 56.2883 21.6477 55.7057 21.6477C55.1231 21.6477 54.651 22.1198 54.651 22.7024V27.8445H51.688V26.1097C51.688 25.5271 51.2159 25.055 50.6333 25.055C50.0507 25.055 49.5786 25.5271 49.5786 26.1097V27.8445H46.7794V25.0993C46.7789 23.9399 47.1953 22.8168 47.9515 21.9374ZM42.5714 36.8805C42.5714 36.0003 43.0861 35.2399 43.8292 34.8787C43.9321 35.4869 44.2647 36.0166 44.7355 36.3765V39.1038C43.5368 39.0703 42.5714 38.0872 42.5714 36.8805ZM56.6044 47.8803H54.6877C50.3632 47.8803 46.8449 44.362 46.8449 40.0377V36.8687H51.9545C52.5371 36.8687 53.0092 36.3966 53.0092 35.814C53.0092 35.2314 52.5371 34.7593 51.9545 34.7593H46.1821C46.0279 34.7593 45.9024 34.6337 45.9024 34.4794V30.2337C45.9024 30.0794 46.028 29.954 46.1821 29.954H65.1098C65.2641 29.954 65.3895 30.0796 65.3895 30.2337V34.4794C65.3895 34.6339 65.264 34.7593 65.1098 34.7593H56.5937C56.0111 34.7593 55.539 35.2314 55.539 35.814C55.539 36.3966 56.0111 36.8687 56.5937 36.8687H64.4471V40.0377C64.4471 44.3622 60.9289 47.8803 56.6044 47.8803ZM66.5564 39.1038V36.3765C67.0272 36.0165 67.3598 35.4869 67.4628 34.8785C68.206 35.2397 68.7208 36 68.7208 36.8803C68.7209 38.0872 67.7553 39.0704 66.5564 39.1038Z" fill="#02C4F2"/>
<path d="M69.513 5.99735H52.8252V5.92887C52.8252 4.55552 51.7081 3.4384 50.3347 3.4384H49.4776V2.58129C49.4776 1.20795 48.3605 0.0908203 46.9873 0.0908203H45.1291C43.7557 0.0908203 42.6386 1.20795 42.6386 2.58129V3.4384H41.7815C40.4081 3.4384 39.291 4.55552 39.291 5.92887V7.78709C39.291 9.16029 40.4081 10.2774 41.7815 10.2774H42.6386V11.1345C42.6386 12.5079 43.7557 13.625 45.1291 13.625H46.9873C46.9998 13.625 47.0119 13.6233 47.0243 13.6232C47.0366 13.6236 47.0489 13.625 47.0614 13.625H69.5129C70.8838 13.625 71.9993 12.5096 71.9993 11.1386V8.48374C71.9994 7.11279 70.884 5.99735 69.513 5.99735ZM52.8024 8.10673H54.1659V11.5155H49.4455C49.4648 11.3909 49.4778 11.2643 49.4778 11.1344V10.2773H50.3349C51.5995 10.2774 52.6446 9.32918 52.8024 8.10673ZM56.2753 8.10673H61.8843V11.5155H56.2753V8.10673ZM44.7481 11.1345V9.22273C44.7481 8.64012 44.276 8.16804 43.6934 8.16804H41.7816C41.5715 8.16804 41.4005 7.99718 41.4005 7.78709V5.92887C41.4005 5.71877 41.5715 5.54777 41.7816 5.54777H43.6934C44.276 5.54777 44.7481 5.0757 44.7481 4.49309V2.58129C44.7481 2.3712 44.9191 2.2002 45.1292 2.2002H46.9874C47.1975 2.2002 47.3684 2.3712 47.3684 2.58129V4.49309C47.3684 5.0757 47.8405 5.54777 48.4231 5.54777H50.3349C50.545 5.54777 50.716 5.71877 50.716 5.92887V7.78709C50.716 7.99718 50.545 8.16804 50.3349 8.16804H48.4231C47.8405 8.16804 47.3684 8.64012 47.3684 9.22273V11.1345C47.3684 11.3446 47.1975 11.5156 46.9874 11.5156H45.1292C44.9191 11.5156 44.7481 11.3446 44.7481 11.1345ZM69.89 11.1386C69.89 11.3466 69.721 11.5156 69.513 11.5156H63.9935V8.10687H69.513C69.721 8.10687 69.89 8.2759 69.89 8.48388V11.1386Z" fill="#02C4F2"/>
<path d="M40.2863 46.9816L40.1554 46.8507L40.2863 46.7197C40.8411 46.1648 41.1467 45.4271 41.1467 44.6423C41.1467 43.8575 40.8411 43.1197 40.2863 42.5648C39.1408 41.4194 37.2769 41.4193 36.1311 42.5648L36.0003 42.6958L35.8694 42.565C35.3147 42.0101 34.5768 41.7043 33.792 41.7043C33.0073 41.7043 32.2694 42.0099 31.7145 42.5648C30.5691 43.7104 30.5691 45.5741 31.7147 46.7199L31.8454 46.8507L31.7145 46.9817C30.5691 48.1273 30.5691 49.9911 31.7145 51.1366C32.86 52.2817 34.7239 52.282 35.8697 51.1366L36.0005 51.0057L36.1314 51.1365C36.6862 51.6914 37.424 51.9971 38.2089 51.9971C38.9935 51.9971 39.7314 51.6915 40.2863 51.1366C41.4316 49.991 41.4316 48.1271 40.2863 46.9816ZM37.918 47.5965L38.7946 48.4729C39.1176 48.7961 39.1177 49.3217 38.7946 49.6447C38.6382 49.8012 38.4299 49.8876 38.2087 49.8876C37.9874 49.8876 37.7792 49.8014 37.6227 49.6447L36.7461 48.7682C36.5402 48.5623 36.2702 48.4594 36.0003 48.4594C35.7305 48.4594 35.4605 48.5623 35.2545 48.7682L34.3779 49.6447C34.0549 49.9679 33.5291 49.9682 33.2061 49.6447C32.883 49.3217 32.8831 48.7961 33.2061 48.473L34.0828 47.5964C34.2805 47.3985 34.3916 47.1304 34.3916 46.8505C34.3916 46.5707 34.2805 46.3025 34.0826 46.1046L33.2061 45.2283C32.8831 44.9051 32.883 44.3795 33.2061 44.0564C33.3625 43.8999 33.5708 43.8136 33.792 43.8136C34.0133 43.8136 34.2214 43.8998 34.3779 44.0564L35.2546 44.933C35.6664 45.3447 36.3342 45.3447 36.7461 44.933L37.6226 44.0564C37.9455 43.7333 38.4713 43.733 38.7944 44.0564C38.9509 44.2128 39.0371 44.4209 39.0371 44.6423C39.0371 44.8636 38.9511 45.0718 38.7944 45.2281L37.9178 46.1048C37.72 46.3026 37.6089 46.5708 37.6089 46.8507C37.6089 47.1305 37.72 47.3988 37.918 47.5965Z" fill="#02C4F2"/>
<path d="M28.6497 52.1692H3.93164C2.57475 52.1692 1.4707 53.2732 1.4707 54.6301V66.3242C1.4707 69.4035 3.97594 71.9089 7.05548 71.9089H25.5262C28.6054 71.9089 31.1108 69.4036 31.1108 66.3242V64.6041C31.1108 64.0215 30.6387 63.5494 30.0561 63.5494C29.4735 63.5494 29.0014 64.0215 29.0014 64.6041V66.3242C29.0014 68.2405 27.4425 69.7995 25.5262 69.7995H7.05548C5.13919 69.7995 3.58008 68.2405 3.58008 66.3242V58.9832C3.58008 58.7892 3.73772 58.6316 3.93164 58.6316H28.6497C28.8436 58.6316 29.0013 58.7892 29.0013 58.9832V59.9646C29.0013 60.5472 29.4734 61.0193 30.056 61.0193C30.6386 61.0193 31.1107 60.5472 31.1107 59.9646V54.63C31.1107 53.2732 30.0068 52.1692 28.6497 52.1692ZM28.6497 56.5224H3.93164C3.81197 56.5224 3.69525 56.5339 3.58008 56.5505V54.6303C3.58008 54.4363 3.73772 54.2787 3.93164 54.2787H28.6497C28.8436 54.2787 29.0013 54.4363 29.0013 54.6303V56.5505C28.8862 56.5338 28.7694 56.5224 28.6497 56.5224Z" fill="#02C4F2"/>
<path d="M7.86862 61.5286C6.50343 62.894 6.50343 65.1154 7.86862 66.4809C8.53012 67.1423 9.40944 67.5065 10.3447 67.5065C11.28 67.5065 12.1594 67.1423 12.8209 66.4809C12.8209 66.4808 12.8209 66.4807 12.8209 66.4807C14.1861 65.1154 14.1861 62.894 12.8209 61.5286C11.4557 60.1633 9.23394 60.1633 7.86862 61.5286ZM11.3293 64.9893C10.7867 65.5321 9.90304 65.5322 9.36023 64.9894C8.81741 64.4465 8.81741 63.5631 9.36023 63.0204C9.63163 62.7488 9.98826 62.6131 10.3447 62.6131C10.7012 62.6131 11.0579 62.7488 11.3293 63.0204C11.8722 63.5631 11.8722 64.4463 11.3293 64.9893Z" fill="#02C4F2"/>
<path d="M19.3339 62.9458C18.7519 62.9707 18.3003 63.4626 18.3252 64.0445C18.3494 64.6111 18.8164 65.0542 19.3781 65.0542C19.3932 65.0542 19.4087 65.054 19.4239 65.0533L19.4657 65.0514C20.0477 65.0265 20.4993 64.5346 20.4744 63.9527C20.4495 63.3708 19.9552 62.917 19.3757 62.944L19.3339 62.9458Z" fill="#02C4F2"/>
<path d="M23.8353 62.9581C23.2534 62.9848 22.8034 63.4783 22.8302 64.0602C22.8564 64.6256 23.3229 65.0663 23.883 65.0663C23.8993 65.0663 23.9157 65.0659 23.9323 65.0652L23.9741 65.0632C24.556 65.0365 25.006 64.5431 24.9791 63.9612C24.9523 63.3793 24.459 62.9339 23.8771 62.9561L23.8353 62.9581Z" fill="#02C4F2"/>
<path d="M22.7107 61.7769C22.6821 61.1953 22.1874 60.7492 21.6055 60.7753C21.0237 60.8038 20.5753 61.2987 20.6038 61.8804L20.6058 61.9195C20.6335 62.4837 21.0997 62.9225 21.6584 62.9225C21.6758 62.9225 21.6934 62.922 21.711 62.9212C22.2927 62.8926 22.7412 62.3978 22.7126 61.816L22.7107 61.7769Z" fill="#02C4F2"/>
<path d="M21.5927 65.0881C21.0108 65.1168 20.5625 65.6118 20.5911 66.1934L20.5931 66.2324C20.621 66.7966 21.0871 67.2352 21.6457 67.2352C21.6631 67.2352 21.6809 67.2347 21.6984 67.2339C22.2803 67.2052 22.7286 66.7102 22.7 66.1286L22.698 66.0896C22.6693 65.5079 22.1754 65.0607 21.5927 65.0881Z" fill="#02C4F2"/>
<path d="M68.0638 52.1692H43.3457C41.9888 52.1692 40.8848 53.2732 40.8848 54.6301V66.3244C40.8848 69.4036 43.39 71.909 46.4694 71.909H64.9401C68.0193 71.909 70.5247 69.4038 70.5247 66.3244V54.6301C70.5247 53.2732 69.4207 52.1692 68.0638 52.1692ZM43.3457 54.2786H68.0638C68.2577 54.2786 68.4153 54.4362 68.4153 54.6301V56.5504C68.3002 56.5338 68.1835 56.5222 68.0638 56.5222H43.3457C43.226 56.5222 43.1093 56.5338 42.9941 56.5504V54.6301C42.9941 54.4363 43.1518 54.2786 43.3457 54.2786ZM68.4153 66.3245C68.4153 68.2408 66.8564 69.7998 64.9401 69.7998H46.4694C44.5531 69.7998 42.9941 68.2408 42.9941 66.3245V59.7215V58.9833C42.9941 58.7894 43.1518 58.6318 43.3457 58.6318H68.0638C68.2577 58.6318 68.4153 58.7894 68.4153 58.9833V59.7215V66.3245Z" fill="#02C4F2"/>
<path d="M61.65 60.5029C60.7147 60.5029 59.8354 60.8671 59.1742 61.5285C58.5127 62.1899 58.1484 63.0692 58.1484 64.0045C58.1484 64.9398 58.5127 65.8191 59.174 66.4805C59.8354 67.142 60.7147 67.5062 61.65 67.5062C62.5853 67.5062 63.4646 67.142 64.1261 66.4806C64.7875 65.8191 65.1517 64.9398 65.1517 64.0045C65.1517 63.0692 64.7875 62.1899 64.1261 61.5285C63.4648 60.8671 62.5854 60.5029 61.65 60.5029ZM62.6345 64.9892C62.3715 65.2523 62.022 65.397 61.65 65.397C61.278 65.397 60.9286 65.2523 60.6656 64.9892C60.4025 64.7262 60.2578 64.3766 60.2578 64.0046C60.2578 63.6327 60.4025 63.2832 60.6656 63.0201C60.9286 62.7571 61.278 62.6124 61.65 62.6124C62.022 62.6124 62.3715 62.7571 62.6345 63.0203H62.6347C62.8976 63.2832 63.0423 63.6327 63.0423 64.0046C63.0423 64.3766 62.8976 64.726 62.6345 64.9892Z" fill="#02C4F2"/>
<path d="M52.6629 62.9457L52.6212 62.9439C52.0407 62.9183 51.5472 63.3706 51.5225 63.9526C51.4977 64.5347 51.9491 65.0266 52.5312 65.0513L52.5729 65.0532C52.5882 65.0539 52.6036 65.0541 52.6188 65.0541C53.1804 65.0541 53.6474 64.6112 53.6716 64.0444C53.6965 63.4625 53.245 62.9706 52.6629 62.9457Z" fill="#02C4F2"/>
<path d="M48.1606 62.9581L48.1188 62.9562C47.5375 62.9332 47.0436 63.3794 47.0168 63.9612C46.9899 64.543 47.44 65.0364 48.0218 65.0633L48.0636 65.0653C48.08 65.066 48.0965 65.0664 48.1129 65.0664C48.673 65.0664 49.1396 64.6255 49.1657 64.0602C49.1924 63.4783 48.7424 62.985 48.1606 62.9581Z" fill="#02C4F2"/>
<path d="M50.2852 62.9213C50.3029 62.9221 50.3203 62.9226 50.3378 62.9226C50.8965 62.9226 51.3627 62.4838 51.3904 61.9196L51.3923 61.8805C51.4209 61.2986 50.9724 60.8039 50.3907 60.7753C49.8066 60.7482 49.314 61.1951 49.2855 61.777L49.2835 61.8161C49.255 62.398 49.7034 62.8927 50.2852 62.9213Z" fill="#02C4F2"/>
<path d="M50.4035 65.0883C49.8158 65.062 49.3269 65.5079 49.2982 66.0898L49.2962 66.1287C49.2675 66.7105 49.7159 67.2054 50.2978 67.2341C50.3155 67.2349 50.3331 67.2353 50.3505 67.2353C50.9092 67.2353 51.3752 66.7967 51.4031 66.2325L51.4051 66.1936C51.4337 65.6118 50.9854 65.117 50.4035 65.0883Z" fill="#02C4F2"/>
</svg>
