<svg width="68" height="68" viewBox="0 0 68 68" fill="none" xmlns="http://www.w3.org/2000/svg">
<g clip-path="url(#clip0)">
<path d="M57.3944 37.8491L48 44.1121V35.8491H0V67.8491H48V59.5862L57.3944 65.8491H68V37.8491H57.3944ZM44 63.8491H4V39.8491H44V63.8491ZM48 48.9195L56 43.5862V60.1121L48 54.7787V48.9195ZM64 61.8491H60V41.8491H64V61.8491Z" fill="#FF608F"/>
<path d="M28 43.8491H8V59.8491H28V53.8491H32V49.8491H28V43.8491ZM24 55.8491H12V47.8491H24V55.8491Z" fill="#FF608F"/>
<path d="M28 21.7068C31.3084 21.7068 34 19.0152 34 15.7068C34 12.3984 31.3084 9.70679 28 9.70679C24.6915 9.70679 22 12.3984 22 15.7068C22 19.0152 24.6915 21.7068 28 21.7068ZM28 13.7068C29.1028 13.7068 30 14.604 30 15.7068C30 16.8096 29.1028 17.7068 28 17.7068C26.8971 17.7068 26 16.8096 26 15.7068C26 14.604 26.8971 13.7068 28 13.7068Z" fill="#FF608F"/>
<path d="M18.1008 25.6066L20.9292 22.7782C17.0303 18.8791 17.0303 12.535 20.9292 8.63602L18.1008 5.80762C12.6422 11.2663 12.6422 20.148 18.1008 25.6066Z" fill="#FF608F"/>
<path d="M37.8997 25.6066C43.3582 20.148 43.3582 11.2662 37.8997 5.80762L35.0713 8.63602C38.9702 12.5351 38.9702 18.8792 35.0713 22.7782L37.8997 25.6066Z" fill="#FF608F"/>
<path d="M15.2724 28.4349C8.25431 21.4166 8.25431 9.9973 15.2724 2.97903L12.444 0.150635C3.86631 8.7285 3.86631 22.6854 12.444 31.2633L15.2724 28.4349Z" fill="#FF608F"/>
<path d="M40.7275 28.4349L43.5559 31.2633C52.1337 22.6856 52.1337 8.7285 43.5559 0.150635L40.7275 2.97903C47.7457 9.99717 47.7457 21.4166 40.7275 28.4349Z" fill="#FF608F"/>
<path d="M36 43.8491H40V47.8491H36V43.8491Z" fill="#FF608F"/>
<path d="M36 51.8491H40V55.8491H36V51.8491Z" fill="#FF608F"/>
</g>
<defs>
<clipPath id="clip0">
<rect width="68" height="68" fill="white"/>
</clipPath>
</defs>
</svg>
