<svg width="68" height="68" viewBox="0 0 68 68" fill="none" xmlns="http://www.w3.org/2000/svg">
<g clip-path="url(#clip0)">
<path d="M21.9141 28.0234H19.9219V26.0312C19.9219 24.9309 19.0301 24.0391 17.9297 24.0391C16.8293 24.0391 15.9375 24.9309 15.9375 26.0312V28.0234H13.9453C12.8449 28.0234 11.9531 28.9153 11.9531 30.0156C11.9531 31.116 12.8449 32.0078 13.9453 32.0078H15.9375V34C15.9375 35.1004 16.8293 35.9922 17.9297 35.9922C19.0301 35.9922 19.9219 35.1004 19.9219 34V32.0078H21.9141C23.0144 32.0078 23.9062 31.116 23.9062 30.0156C23.9062 28.9153 23.0144 28.0234 21.9141 28.0234Z" fill="white"/>
<path d="M52.0625 25.3672C52.0625 26.4676 51.1707 27.3594 50.0703 27.3594C48.9699 27.3594 48.0781 26.4676 48.0781 25.3672C48.0781 24.2668 48.9699 23.375 50.0703 23.375C51.1707 23.375 52.0625 24.2668 52.0625 25.3672Z" fill="white"/>
<path d="M52.0625 34.6641C52.0625 35.7644 51.1707 36.6562 50.0703 36.6562C48.9699 36.6562 48.0781 35.7644 48.0781 34.6641C48.0781 33.5637 48.9699 32.6719 50.0703 32.6719C51.1707 32.6719 52.0625 33.5637 52.0625 34.6641Z" fill="white"/>
<path d="M47.4141 30.0156C47.4141 31.116 46.5222 32.0078 45.4219 32.0078C44.3215 32.0078 43.4297 31.116 43.4297 30.0156C43.4297 28.9153 44.3215 28.0234 45.4219 28.0234C46.5222 28.0234 47.4141 28.9153 47.4141 30.0156Z" fill="white"/>
<path d="M56.7109 30.0156C56.7109 31.116 55.8191 32.0078 54.7188 32.0078C53.6184 32.0078 52.7266 31.116 52.7266 30.0156C52.7266 28.9153 53.6184 28.0234 54.7188 28.0234C55.8191 28.0234 56.7109 28.9153 56.7109 30.0156Z" fill="white"/>
<path d="M35.9922 28.0234H32.0078C30.9074 28.0234 30.0156 28.9153 30.0156 30.0156C30.0156 31.116 30.9074 32.0078 32.0078 32.0078H35.9922C37.0926 32.0078 37.9844 31.116 37.9844 30.0156C37.9844 28.9153 37.0926 28.0234 35.9922 28.0234Z" fill="white"/>
<path d="M67.9917 51.0851L65.9331 28.4722C65.5554 24.5464 63.7375 20.9149 60.8157 18.2456C58.368 16.0101 55.3154 14.6109 52.0625 14.2032V12.75C52.0625 11.6496 51.1707 10.7578 50.0703 10.7578C48.9699 10.7578 48.0781 11.6496 48.0781 12.75V14.2037C44.5913 14.6447 41.3275 16.2322 38.8217 18.7266H35.9922V8.76562C35.9922 7.66525 35.1004 6.77344 34 6.77344C32.8996 6.77344 32.0078 7.66525 32.0078 8.76562V18.7266H29.1783C26.6725 16.2322 23.4087 14.6447 19.9219 14.2037V12.75C19.9219 11.6496 19.0301 10.7578 17.9297 10.7578C16.8293 10.7578 15.9375 11.6496 15.9375 12.75V14.2032C12.6846 14.6109 9.63202 16.0101 7.18433 18.2456C4.26245 20.9149 2.44458 24.5464 2.06586 28.4821L0.00830078 51.0851C0.00259399 51.1453 0 51.2054 0 51.2656C0 56.7581 4.46841 61.2266 9.96094 61.2266C13.1199 61.2266 16.1232 59.7034 17.9951 57.1524C17.9982 57.1483 18.0008 57.1441 18.0039 57.14L26.1371 45.8753C26.4484 45.9261 26.7679 45.9531 27.0938 45.9531C29.9326 45.9531 32.3139 43.963 32.9199 41.3047H35.0801C35.6861 43.963 38.0674 45.9531 40.9062 45.9531C41.2321 45.9531 41.5516 45.9261 41.8629 45.8753L49.9961 57.14C49.9987 57.1441 50.0018 57.1488 50.0049 57.1524C51.8768 59.7034 54.8801 61.2266 58.0391 61.2266C63.5316 61.2266 68 56.7581 68 51.2656C68 51.2054 67.9974 51.1453 67.9917 51.0851ZM27.0938 41.9688C25.9955 41.9688 25.1016 41.0749 25.1016 39.9766C25.1016 38.8783 25.9955 37.9844 27.0938 37.9844C28.192 37.9844 29.0859 38.8783 29.0859 39.9766C29.0859 41.0749 28.192 41.9688 27.0938 41.9688ZM38.9141 39.9766C38.9141 38.8783 39.808 37.9844 40.9062 37.9844C42.0045 37.9844 42.8984 38.8783 42.8984 39.9766C42.8984 41.0749 42.0045 41.9688 40.9062 41.9688C39.808 41.9688 38.9141 41.0749 38.9141 39.9766ZM58.0391 57.2422C56.1185 57.2422 54.3629 56.353 53.222 54.8018L45.3773 43.9366C46.3132 42.8813 46.8828 41.4946 46.8828 39.9766C46.8828 36.6812 44.2017 34 40.9062 34C38.5644 34 36.5343 35.3546 35.5543 37.3203H32.4457C31.4657 35.3546 29.4356 34 27.0938 34C23.7983 34 21.1172 36.6812 21.1172 39.9766C21.1172 41.4946 21.6868 42.8813 22.6227 43.9366L14.778 54.8018C13.6371 56.353 11.8815 57.2422 9.96094 57.2422C6.69354 57.2422 4.03003 54.6062 3.98489 51.3497L6.03311 28.854C6.31586 25.9124 7.67926 23.1898 9.8717 21.1872C12.0776 19.1722 14.9393 18.0625 17.9297 18.0625C21.3247 18.0625 24.5719 19.5151 26.8385 22.0474C27.2167 22.4697 27.7563 22.7109 28.3228 22.7109H39.6772C40.2437 22.7109 40.7833 22.4697 41.1615 22.0474C43.4281 19.5151 46.6753 18.0625 50.0703 18.0625C53.0607 18.0625 55.9224 19.1722 58.1283 21.1872C60.3207 23.1898 61.6841 25.9124 61.9664 28.8437L64.0151 51.3497C63.97 54.6062 61.3065 57.2422 58.0391 57.2422Z" fill="white"/>
</g>
<defs>
<clipPath id="clip0">
<rect width="68" height="68" fill="white"/>
</clipPath>
</defs>
</svg>
