<svg width="60" height="60" viewBox="0 0 60 60" fill="none" xmlns="http://www.w3.org/2000/svg">
<g clip-path="url(#clip0)">
<path d="M59.3819 21.0697L47.2497 8.95455L34.2999 21.9225L30.3102 17.9328L32.9946 15.2484L18.8641 1.11768L3.55373 16.4282L0.617188 30.4339L9.21324 39.0298L18.1866 30.0564L22.1847 34.0546L13.5691 42.6823L9.15482 59.2355L25.7015 54.7976L34.3085 46.1784L47.1687 59.0388L59.2925 46.9151L46.4238 34.0462L59.3819 21.0697ZM47.2532 14.1505L54.1861 21.0734L25.5183 49.7816L24.3517 43.9404L18.6045 42.8396L47.2532 14.1505ZM4.62104 29.2418L6.92504 18.2526L18.864 6.31352L27.7988 15.2483L9.21324 33.834L4.62104 29.2418ZM20.7845 27.4587L27.7124 20.5307L31.7039 24.5222L24.7809 31.455L20.7845 27.4587ZM16.4425 46.1664L21.2328 47.084L22.2013 51.9326L14.3427 54.0403L16.4425 46.1664ZM54.0968 46.9151L47.1689 53.8429L36.9047 43.5787L43.8277 36.6459L54.0968 46.9151Z" fill="white"/>
</g>
<defs>
<clipPath id="clip0">
<rect width="58.7647" height="58.7647" fill="white" transform="translate(0.617188 0.794189)"/>
</clipPath>
</defs>
</svg>
