<svg width="82" height="82" viewBox="0 0 82 82" fill="none" xmlns="http://www.w3.org/2000/svg">
<path d="M24.6662 63.7109C34.6335 63.7109 42.7426 55.6017 42.7426 45.6345C42.7426 35.6673 34.6335 27.5581 24.6662 27.5581C14.699 27.5581 6.58984 35.6673 6.58984 45.6345C6.58984 55.6017 14.699 63.7109 24.6662 63.7109ZM24.6662 30.7612C32.8674 30.7612 39.5395 37.4334 39.5395 45.6345C39.5395 53.8356 32.8674 60.5078 24.6662 60.5078C16.4651 60.5078 9.79297 53.8356 9.79297 45.6345C9.79297 37.4334 16.4651 30.7612 24.6662 30.7612Z" fill="#C60BF4"/>
<path d="M80.3984 30.267H71.521V24.2624H76.3789C77.2635 24.2624 77.9805 23.5455 77.9805 22.6609V13.4531C77.9805 12.5685 77.2635 11.8516 76.3789 11.8516H30.5773C29.6927 11.8516 28.9758 12.5685 28.9758 13.4531V20.9686C28.9758 20.9686 25.3773 20.9686 24.6659 20.9686C11.0652 20.9686 0 32.0338 0 45.6345C0 47.0803 0.126999 48.5317 0.377243 49.9494C0.530518 50.8202 1.36195 51.4014 2.2328 51.2475C3.10365 51.0942 3.68484 50.2634 3.53157 49.3919C3.31323 48.1589 3.20312 46.8945 3.20312 45.6345C3.20312 33.7999 12.8313 24.1717 24.6659 24.1717C26.484 24.1717 28.3045 24.4019 30.0643 24.8599C39.294 27.2603 46.1288 35.6642 46.1288 45.6345C46.1288 56.9086 37.3915 66.1802 26.3326 67.0335C25.7783 67.0754 25.2215 67.0973 24.6659 67.0973C19.0899 67.0973 13.806 64.9684 9.7883 61.1027C9.1508 60.4896 8.13731 60.5097 7.52359 61.1465C6.91049 61.784 6.92989 62.7981 7.56738 63.4112C9.0701 64.857 10.728 66.0901 12.5003 67.0973H6.21169C5.32707 67.0973 4.61012 67.8143 4.61012 68.6989C4.61012 69.5835 5.32707 70.3005 6.21169 70.3005H24.6522C24.6566 70.3005 24.6616 70.3011 24.6659 70.3011C24.6659 70.3011 66.254 70.3005 66.259 70.3005H77.3968C78.2814 70.3005 78.9983 69.5835 78.9983 68.6989C78.9983 67.8143 78.2814 67.0973 77.3968 67.0973H67.8468V61.0934H76.3789C77.2635 61.0934 77.9805 60.3758 77.9805 59.4918V42.6785H80.3984C81.2831 42.6785 82 41.9616 82 41.077V31.8686C82 30.984 81.2831 30.267 80.3984 30.267ZM32.1789 15.0547H74.7773V21.0593H61.8197C60.9351 21.0593 60.2181 21.7762 60.2181 22.6609V22.6615C60.2181 23.5461 60.9351 24.263 61.8197 24.263H68.3179V30.267H43.961C42.0122 27.8234 39.638 25.7958 36.9811 24.263H47.38C48.2646 24.263 48.9815 23.5461 48.9815 22.6615C48.9815 22.6064 48.9784 22.5514 48.9728 22.4976C48.8914 21.6899 48.2089 21.0593 47.38 21.0593H32.1789V15.0547ZM64.6437 67.0973H36.8303C39.5261 65.5646 41.9397 63.512 43.8891 61.0927H64.6437V67.0973ZM74.7773 57.8896H46.0743C46.5598 57.0406 46.9927 56.161 47.375 55.2614C47.8404 54.1672 48.2302 53.0367 48.5323 51.8862H74.7773V57.8896ZM74.7773 48.6831H49.1454C49.3901 46.6931 49.3938 44.6686 49.1561 42.6779H74.7773V48.6831ZM78.7969 39.4748H48.5574C48.0168 37.3652 47.2054 35.3564 46.1313 33.4702H78.7969V39.4748Z" fill="#C60BF4"/>
<path d="M15.15 51.1287C15.4365 51.6242 15.9651 51.9295 16.537 51.9295H21.032L23.2792 55.8227C23.5657 56.3181 24.0943 56.6234 24.6661 56.6234C25.2386 56.6234 25.7672 56.3181 26.0531 55.8227L28.3009 51.9295H32.7953C33.3678 51.9295 33.8964 51.6242 34.1823 51.1287C34.4688 50.6332 34.4688 50.0226 34.1823 49.5271L31.9351 45.6346L34.1823 41.7421C34.4688 41.2466 34.4688 40.636 34.1823 40.1405C33.8964 39.645 33.3678 39.3397 32.7953 39.3397H28.3009L26.0531 35.4465C25.7672 34.951 25.2386 34.6458 24.6661 34.6458C24.0943 34.6458 23.5657 34.951 23.2792 35.4465L21.032 39.3397H16.537C15.9651 39.3397 15.4365 39.645 15.15 40.1405C14.8641 40.636 14.8641 41.2466 15.15 41.7421L17.3978 45.6346L15.15 49.5271C14.8641 50.0226 14.8641 50.6332 15.15 51.1287ZM20.6341 44.8338L19.3109 42.5428H21.9566C22.5291 42.5428 23.0577 42.2375 23.3436 41.7421L24.6668 39.4504L25.9893 41.7421C26.2752 42.2375 26.8038 42.5428 27.3763 42.5428H30.022L28.6988 44.8338C28.4129 45.3293 28.4129 45.9399 28.6988 46.4354L30.022 48.7264H27.3763C26.8038 48.7264 26.2752 49.0317 25.9893 49.5271L24.6668 51.8188L23.3436 49.5271C23.0577 49.0317 22.5291 48.7264 21.9566 48.7264H19.3109L20.6341 46.4354C20.92 45.9399 20.92 45.3293 20.6341 44.8338Z" fill="#C60BF4"/>
<path d="M53.1204 23.2896C53.4514 24.0967 54.4079 24.4896 55.2118 24.1561C56.0176 23.8214 56.4124 22.8711 56.0783 22.0641C55.7448 21.2583 54.792 20.8641 53.9869 21.1976C53.1817 21.531 52.7851 22.4845 53.1204 23.2896Z" fill="#C60BF4"/>
<path d="M4.97334 58.0625C5.78038 57.7321 6.17326 56.7743 5.83981 55.971C5.50511 55.1653 4.55668 54.7711 3.74965 55.1046C2.94198 55.438 2.54847 56.3902 2.88318 57.1966C3.21663 58.0005 4.16755 58.3984 4.97334 58.0625Z" fill="#C60BF4"/>
</svg>
