<svg width="64" height="64" viewBox="0 0 64 64" fill="none" xmlns="http://www.w3.org/2000/svg">
<path d="M11.2852 36.5747C10.5948 36.5747 10.0352 37.1343 10.0352 37.8247C10.0352 38.5151 10.5948 39.0747 11.2852 39.0747C11.9755 39.0747 12.5352 38.5151 12.5352 37.8247C12.5352 37.1343 11.9755 36.5747 11.2852 36.5747Z" fill="white"/>
<path d="M52.7148 36.5747C52.0245 36.5747 51.4648 37.1343 51.4648 37.8247C51.4648 38.5151 52.0245 39.0747 52.7148 39.0747C53.4052 39.0747 53.9648 38.5151 53.9648 37.8247C53.9648 37.1343 53.4051 36.5747 52.7148 36.5747Z" fill="white"/>
<path d="M36.3696 38.2252C37.5293 37.3492 38.4076 36.1387 38.8772 34.7591C41.7192 34.2871 43.895 31.8613 43.895 28.9608C43.895 26.1658 41.9386 23.8435 39.2614 23.2346C39.2401 22.5615 38.6891 22.022 38.011 22.022H25.9893C25.3111 22.022 24.7601 22.5616 24.739 23.2346C22.0617 23.8435 20.1055 26.1658 20.1055 28.9608C20.1055 31.8613 22.2811 34.2872 25.1231 34.7591C25.5927 36.1387 26.471 37.3492 27.6307 38.2252L24.9832 41.7966C24.7015 42.1766 24.658 42.6831 24.8707 43.1057C25.0835 43.5283 25.5162 43.795 25.9893 43.795H38.011C38.4841 43.795 38.9169 43.5283 39.1296 43.1057C39.3425 42.6831 39.2988 42.1768 39.0171 41.7966L36.3696 38.2252ZM41.39 28.9608C41.39 30.3791 40.4674 31.5993 39.1679 32.0978L39.2447 25.8482C40.513 26.3591 41.39 27.5557 41.39 28.9608ZM22.6102 28.9608C22.6102 27.5557 23.4871 26.3591 24.7553 25.8483L24.8323 32.098C23.5328 31.5995 22.6102 30.3792 22.6102 28.9608ZM28.4767 41.2901L30.4592 38.6157C30.6831 38.3139 30.7595 37.9275 30.6673 37.5631C30.5753 37.1989 30.3246 36.8951 29.9843 36.7357C28.6471 36.1092 27.6705 34.8878 27.354 33.4543L27.2441 24.527H36.7558L36.646 33.4543C36.3296 34.888 35.3528 36.1093 34.0156 36.7357C33.6753 36.8951 33.4246 37.1989 33.3326 37.5631C33.2405 37.9275 33.317 38.3139 33.5407 38.6157L35.5232 41.2901H28.4767Z" fill="white"/>
<path d="M7.4732 28.6441H10.0328V32.1913C10.0328 32.883 10.5936 33.4438 11.2853 33.4438C11.9771 33.4438 12.5378 32.8831 12.5378 32.1913V28.6441H15.0137C15.7055 28.6441 16.2662 28.0833 16.2662 27.3916V22.3647C16.2662 21.6731 15.7055 21.1122 15.0137 21.1122H12.4958V18.5692H51.5042V21.1122H48.9865C48.2948 21.1122 47.734 21.673 47.734 22.3647V27.3916C47.734 28.0832 48.2947 28.6441 48.9865 28.6441H51.4622V32.1913C51.4622 32.883 52.0229 33.4438 52.7147 33.4438C53.4064 33.4438 53.9672 32.8831 53.9672 32.1913V28.6441H56.527C57.2186 28.6441 57.7794 28.0833 57.7794 27.3916V22.3647C57.7794 21.6731 57.2187 21.1122 56.527 21.1122H54.0092V17.6491C54.0092 17.5386 53.9935 17.432 53.9666 17.33C53.9666 17.3256 53.9672 17.3212 53.9672 17.3168C53.9672 16.6252 53.4064 16.0643 52.7147 16.0643H33.2525V12.6115H35.7702C36.4618 12.6115 37.0227 12.0507 37.0227 11.359V6.33209C37.0227 5.64046 36.462 5.07959 35.7702 5.07959H28.23C27.5382 5.07959 26.9775 5.64034 26.9775 6.33209V11.359C26.9775 12.0506 27.5382 12.6115 28.23 12.6115H30.7476V16.0643H11.2852C10.5935 16.0643 10.0327 16.6251 10.0327 17.3168C10.0327 17.3213 10.0333 17.3257 10.0333 17.3302C10.0065 17.4322 9.9907 17.5387 9.9907 17.6492V21.1123H7.4732C6.78145 21.1123 6.2207 21.6731 6.2207 22.3648V27.3917C6.22083 28.0832 6.78145 28.6441 7.4732 28.6441ZM55.2743 26.1392H50.2388V23.6172H55.2743V26.1392ZM29.4823 7.58446H34.5177V10.1065H29.4823V7.58446ZM8.7257 23.6171H13.7611V26.1391H8.7257V23.6171Z" fill="white"/>
<path d="M21.3183 51.3886H18.8005V48.2576C18.8005 47.5659 18.2397 47.0051 17.548 47.0051H12.5378V43.3697C12.5378 42.6781 11.977 42.1172 11.2852 42.1172C10.5935 42.1172 10.0328 42.6779 10.0328 43.3697V47.0051H5.02262C4.33087 47.0051 3.77012 47.5658 3.77012 48.2576V51.3886H1.2525C0.56075 51.3886 0 51.9493 0 52.6411V57.6679C0 58.3596 0.56075 58.9204 1.2525 58.9204H8.79275C9.4845 58.9204 10.0452 58.3597 10.0452 57.6679V52.6411C10.0452 51.9494 9.4845 51.3886 8.79275 51.3886H6.275V49.5099H16.2955V51.3884H13.7779C13.0861 51.3884 12.5254 51.9492 12.5254 52.6409V57.6678C12.5254 58.3594 13.0861 58.9203 13.7779 58.9203H21.3181C22.0099 58.9203 22.5706 58.3596 22.5706 57.6678V52.6409C22.5706 51.9493 22.0099 51.3886 21.3183 51.3886ZM7.54025 56.4154H2.50487V53.8934H7.54025V56.4154ZM20.0658 56.4154H15.0304V53.8934H20.0658V56.4154Z" fill="white"/>
<path d="M62.7471 51.3886H60.2293V48.2576C60.2293 47.5659 59.6686 47.0051 58.9768 47.0051H53.9666V43.3697C53.9666 42.6781 53.4058 42.1172 52.7141 42.1172C52.0223 42.1172 51.4616 42.6779 51.4616 43.3697V47.0051H46.4513C45.7597 47.0051 45.1988 47.5658 45.1988 48.2576V51.3886H42.6812C41.9896 51.3886 41.4287 51.9493 41.4287 52.6411V57.6679C41.4287 58.3596 41.9895 58.9204 42.6812 58.9204H50.2215C50.9131 58.9204 51.474 58.3597 51.474 57.6679V52.6411C51.474 51.9494 50.9132 51.3886 50.2215 51.3886H47.7037V49.5099H57.7242V51.3884H55.2066C54.515 51.3884 53.9541 51.9492 53.9541 52.6409V57.6678C53.9541 58.3594 54.5148 58.9203 55.2066 58.9203H62.7468C63.4385 58.9203 63.9993 58.3596 63.9993 57.6678V52.6409C63.9996 51.9493 63.4388 51.3886 62.7471 51.3886ZM48.9692 56.4154H43.9338V53.8934H48.9692V56.4154ZM61.4947 56.4154H56.4593V53.8934H61.4947V56.4154Z" fill="white"/>
</svg>
