<svg width="60" height="60" viewBox="0 0 60 60" fill="none" xmlns="http://www.w3.org/2000/svg">
<g clip-path="url(#clip0)">
<path d="M32.2071 29.5409C32.2071 28.2731 31.1794 27.2454 29.9116 27.2454C28.6439 27.2454 27.6162 28.2731 27.6162 29.5409C27.6162 30.8087 28.6439 31.8364 29.9116 31.8364C31.1794 31.8364 32.2071 30.8087 32.2071 29.5409ZM32.2071 20.7032C32.2071 21.971 31.1794 22.9987 29.9116 22.9987C28.6439 22.9987 27.6162 21.971 27.6162 20.7032C27.6162 19.4354 28.6439 18.4077 29.9116 18.4077C31.1794 18.4077 32.2071 19.4354 32.2071 20.7032ZM29.9116 14.0463C28.6439 14.0463 27.6162 13.0186 27.6162 11.7508C27.6162 10.483 28.6439 9.45532 29.9116 9.45532C31.1794 9.45532 32.2071 10.483 32.2071 11.7508C32.2071 13.0186 31.1793 14.0463 29.9116 14.0463ZM13.6467 49.6638C13.0234 51.5357 13.1701 53.5423 14.0596 55.314C14.9471 57.0817 16.4652 58.3951 18.3343 59.0119C19.0952 59.263 19.869 59.3824 20.6306 59.3824C23.729 59.3824 26.6292 57.4084 27.6633 54.3026C27.6633 54.3026 27.8457 53.6476 28.1163 53.6476H31.7068C31.9775 53.6476 32.16 54.3026 32.16 54.3026C33.194 57.4081 36.0946 59.3822 39.1926 59.3823C39.9545 59.3824 40.7278 59.263 41.4888 59.0118C43.358 58.3949 44.8761 57.0816 45.7636 55.3139C46.6531 53.5422 46.7997 51.5356 46.1765 49.6637L43.3733 41.2444C42.3691 38.2283 39.5526 36.2017 36.365 36.2017H23.4582C20.2706 36.2017 17.4541 38.2282 16.4499 41.2443L13.6467 49.6638ZM18.0026 51.114L20.8058 42.6947C21.1845 41.5571 22.2504 40.7928 23.4582 40.7928H36.365C37.5726 40.7928 38.6387 41.5572 39.0174 42.6948L41.8205 51.114C42.0557 51.8203 41.9989 52.5803 41.6607 53.254C41.3244 53.9238 40.7523 54.4204 40.0499 54.6523C38.5922 55.1334 37.0064 54.3261 36.5158 52.8523L36.3313 52.2985C35.6757 50.3292 33.8605 49.0566 31.7068 49.0566H28.1163C25.9627 49.0566 24.1474 50.3291 23.4917 52.2985L23.3074 52.8522C22.8166 54.326 21.2315 55.1333 19.7733 54.6522C19.0708 54.4203 18.4988 53.9238 18.1625 53.2539C17.8243 52.5803 17.7675 51.8203 18.0026 51.114ZM24.8616 42.9735C26.1294 42.9735 27.1571 44.0012 27.1571 45.269C27.1571 46.5368 26.1294 47.5645 24.8616 47.5645C23.5938 47.5645 22.5661 46.5368 22.5661 45.269C22.5661 44.0012 23.5938 42.9735 24.8616 42.9735ZM35.3061 42.9735C36.5739 42.9735 37.6015 44.0012 37.6015 45.269C37.6015 46.5368 36.5739 47.5645 35.3061 47.5645C34.0383 47.5645 33.0106 46.5368 33.0106 45.269C33.0106 44.0012 34.0383 42.9735 35.3061 42.9735ZM7.20705 3.57519C11.9513 2.22601 19.7415 0.617676 29.9116 0.617676C39.868 0.617676 47.7496 2.24759 52.6081 3.6149C56.5445 4.7227 59.2939 8.35704 59.2939 12.453V41.8526C59.2939 43.8245 58.5263 45.661 57.1324 47.0237C55.7901 48.3358 54.0355 49.0526 52.1754 49.0526C52.1208 49.0526 52.0659 49.052 52.0112 49.0507C50.7437 49.022 49.7395 47.9713 49.7682 46.7038C49.7969 45.4365 50.8483 44.4294 52.1151 44.4609C52.7899 44.4751 53.4324 44.2204 53.9231 43.7408C54.4259 43.2491 54.703 42.5786 54.703 41.8526V12.453C54.703 10.4044 53.3301 8.58728 51.3645 8.03418C46.7841 6.74515 39.3442 5.20866 29.9116 5.20866C20.2706 5.20866 12.9263 6.72173 8.46292 7.99102C6.49476 8.55078 5.12034 10.3684 5.12034 12.411V30.3532C5.12034 31.621 4.09265 32.6487 2.82484 32.6487C1.55704 32.6487 0.529354 31.621 0.529354 30.3532V12.411C0.529354 8.32674 3.27522 4.69332 7.20705 3.57519ZM2.82484 39.641C4.09265 39.641 5.12034 40.6687 5.12034 41.9365C5.12034 42.8175 5.51929 43.3949 5.85386 43.7239C6.34211 44.2041 7.02158 44.4728 7.72182 44.4612C8.98434 44.4405 10.0341 45.4505 10.0553 46.7182C10.0765 47.9857 9.06606 49.0304 7.79837 49.0516C7.75878 49.0523 7.71941 49.0527 7.67981 49.0527C5.7998 49.0527 3.96685 48.3073 2.63478 46.9973C1.277 45.662 0.529354 43.8647 0.529354 41.9365C0.529354 40.6687 1.55704 39.641 2.82484 39.641Z" fill="white"/>
</g>
<defs>
<clipPath id="clip0">
<rect width="58.7647" height="58.7647" fill="white" transform="matrix(-1 0 0 1 59.2939 0.617676)"/>
</clipPath>
</defs>
</svg>
